<?xml version="1.0" standalone="no"?>
<!DOCTYPE svg PUBLIC "-//W3C//DTD SVG 20010904//EN"
 "http://www.w3.org/TR/2001/REC-SVG-20010904/DTD/svg10.dtd">
<svg version="1.0" xmlns="http://www.w3.org/2000/svg"
 width="300.000000pt" height="300.000000pt" viewBox="0 0 300.000000 300.000000"
 preserveAspectRatio="xMidYMid meet">
<metadata>
Created by potrace 1.10, written by Peter Selinger 2001-2011
</metadata>
<g transform="translate(0.000000,300.000000) scale(0.100000,-0.100000)"
fill="#0056ff" stroke="none">
<path d="M1196 2970 c-531 -112 -960 -497 -1124 -1010 -39 -122 -62 -246 -61
-324 l2 -61 13 93 c8 52 23 132 34 178 20 84 87 275 99 284 4 3 21 34 38 70
32 67 122 212 123 196 0 -5 12 9 26 30 38 56 161 181 214 217 25 17 48 36 52
43 11 18 133 93 198 121 30 14 57 28 60 33 9 13 196 79 283 100 45 11 129 26
187 34 l105 14 -80 0 c-44 0 -120 -8 -169 -18z"/>
<path d="M1590 2983 c168 -25 234 -37 285 -50 79 -19 249 -83 253 -94 2 -5 8
-9 14 -9 33 0 241 -126 232 -141 -3 -5 3 -6 12 -2 11 4 15 2 11 -4 -4 -5 5
-15 18 -21 50 -23 308 -292 280 -292 -3 0 5 -11 19 -25 26 -26 75 -106 113
-185 74 -153 121 -310 148 -495 l14 -100 -4 105 c-7 174 -75 391 -182 575
-185 319 -483 564 -827 679 -114 38 -263 66 -343 65 -37 -1 -57 -3 -43 -6z"/>
<path d="M2179 1825 c-28 -15 -36 -31 -67 -135 -11 -36 -35 -112 -53 -169
l-33 -104 -38 194 c-27 135 -44 198 -55 207 -20 15 -137 16 -164 2 -20 -11
-27 -60 -9 -60 6 0 10 -8 10 -17 0 -18 11 -73 86 -413 37 -170 46 -198 69
-218 14 -12 36 -22 48 -22 18 0 19 -2 7 -10 -11 -7 -1 -10 35 -10 36 0 46 3
35 10 -13 8 -13 10 2 10 41 0 76 52 108 160 37 123 69 211 69 192 1 -7 5 -11
9 -8 4 2 14 -16 22 -42 69 -234 110 -319 147 -305 11 4 14 3 9 -5 -5 -9 6 -12
36 -12 33 0 39 3 28 11 -12 8 -11 9 5 7 11 -2 33 9 51 25 31 27 37 43 63 157
22 97 41 181 75 328 40 170 44 217 20 226 -23 9 -147 7 -162 -3 -7 -4 -30 -92
-52 -201 -22 -106 -41 -198 -43 -203 -1 -5 -9 20 -17 57 -7 36 -17 66 -21 66
-3 0 -9 14 -13 32 -3 17 -20 75 -36 129 -22 72 -38 103 -57 118 -30 24 -77 26
-114 6z m108 -27 c20 -21 143 -412 143 -452 0 -28 20 -17 20 12 1 15 20 122
43 237 l43 210 82 3 c45 2 82 -1 82 -5 -1 -4 -34 -152 -74 -327 -70 -306 -75
-321 -105 -348 -52 -46 -131 -34 -162 24 -7 12 -38 105 -70 207 -31 102 -60
179 -62 171 -3 -8 -27 -85 -53 -170 -62 -207 -71 -228 -105 -245 -51 -27 -116
-14 -143 27 -8 13 -44 160 -81 328 -36 168 -68 313 -71 323 -5 15 3 17 74 17
75 0 80 -1 85 -22 3 -13 24 -122 48 -243 23 -121 44 -215 45 -210 2 6 33 108
68 228 36 121 72 227 82 238 25 27 85 25 111 -3z"/>
<path d="M412 1806 c-9 -5 -20 -14 -24 -20 -4 -6 -8 -159 -8 -341 1 -308 2
-332 19 -352 18 -22 26 -23 153 -22 91 0 127 3 113 10 -16 7 -14 9 12 6 18 -2
30 0 27 5 -5 8 0 10 28 12 45 4 118 124 118 195 0 46 -38 124 -75 152 l-33 25
24 50 c53 109 13 225 -92 269 -37 15 -238 24 -262 11z m218 -17 c88 -19 140
-82 140 -170 0 -56 -24 -101 -66 -126 l-36 -20 32 -6 c129 -26 170 -207 71
-306 -51 -51 -100 -63 -246 -59 l-120 3 -3 334 c-2 238 1 338 9 347 14 17 145
19 219 3z"/>
<path d="M470 1615 l0 -115 70 0 c82 0 123 17 145 60 30 57 10 127 -45 155
-18 9 -56 15 -100 15 l-70 0 0 -115z m160 77 c34 -17 35 -18 33 -75 -2 -77
-24 -96 -109 -97 -57 0 -61 1 -58 23 1 12 3 55 3 95 l1 72 48 0 c26 0 63 -8
82 -18z m47 -89 c-3 -10 -5 -4 -5 12 0 17 2 24 5 18 2 -7 2 -21 0 -30z"/>
<path d="M470 1300 l0 -143 93 5 c139 7 187 43 187 138 0 93 -53 132 -187 138
l-93 4 0 -142z m169 114 c17 -4 45 -19 61 -34 25 -24 30 -35 30 -77 -1 -87
-51 -121 -182 -123 -55 0 -55 -1 -50 133 l3 87 52 2 52 1 -55 7 -55 7 56 1
c31 1 71 -1 88 -4z"/>
<path d="M925 1800 c-16 -18 -18 -47 -19 -348 -1 -262 2 -334 13 -355 25 -48
70 -38 92 20 9 24 12 342 5 562 -3 96 -7 117 -22 128 -25 18 -48 16 -69 -7z
m63 -12 c16 -16 17 -650 2 -679 -15 -28 -49 -24 -60 7 -13 34 -12 641 1 665
11 22 39 25 57 7z"/>
<path d="M1325 1810 c-16 -4 -41 -12 -55 -18 -14 -5 -27 -9 -30 -8 -11 2 -88
-85 -100 -114 -7 -16 -16 -30 -20 -30 -13 0 -40 -133 -40 -195 0 -96 26 -183
73 -247 41 -56 114 -108 151 -108 10 0 15 -4 12 -9 -13 -21 179 -22 194 -1 3
4 23 16 45 28 22 11 51 31 65 43 49 46 90 171 90 274 0 30 -6 47 -23 63 -21
19 -35 22 -118 22 -89 0 -97 -2 -119 -25 -20 -21 -21 -27 -9 -42 23 -30 32
-33 89 -33 l56 0 2 -34 c3 -43 -35 -146 -53 -146 -8 0 -19 -9 -25 -19 -12 -24
-80 -36 -146 -26 -51 7 -108 54 -140 115 -27 51 -27 240 0 290 26 49 52 80 60
73 3 -3 6 -1 6 5 0 17 67 42 113 42 52 0 114 -19 157 -48 42 -28 70 -25 89 10
14 25 14 29 -5 55 -52 69 -212 111 -319 83z m200 -31 c70 -26 117 -65 113 -93
-5 -32 -41 -31 -88 3 -90 65 -219 60 -287 -11 -55 -58 -76 -113 -81 -210 -10
-189 77 -307 226 -308 121 0 187 71 208 223 l7 46 -79 3 c-77 3 -79 4 -79 28
0 25 1 25 99 28 127 4 130 1 123 -98 -7 -94 -19 -133 -56 -192 -71 -112 -268
-141 -394 -57 -163 108 -184 421 -39 573 81 84 208 110 327 65z"/>
<path d="M362 1510 c0 -14 2 -19 5 -12 2 6 2 18 0 25 -3 6 -5 1 -5 -13z"/>
<path d="M15 1335 c14 -365 257 -795 585 -1037 224 -165 500 -273 720 -283 85
-4 89 -3 40 6 -169 30 -232 43 -309 67 -47 14 -88 29 -91 33 -3 3 -16 10 -30
14 -74 22 -257 124 -273 151 -4 8 -13 14 -19 14 -31 0 -241 198 -292 275 -14
22 -26 35 -26 30 0 -5 -20 20 -45 57 -48 72 -105 178 -105 197 0 6 -4 11 -9
11 -5 0 -11 8 -14 18 -3 9 -21 60 -40 113 -38 102 -61 198 -83 344 l-13 90 4
-100z"/>
<path d="M358 1360 c-2 -39 0 -70 5 -70 4 0 7 32 7 70 0 39 -2 70 -4 70 -2 0
-6 -32 -8 -70z"/>
<path d="M2972 1333 c-14 -124 -56 -289 -93 -371 -16 -34 -29 -66 -29 -70 1
-15 -86 -175 -107 -198 -12 -13 -20 -24 -17 -24 5 0 -8 -17 -38 -51 -10 -10
-18 -23 -18 -29 0 -15 -157 -173 -162 -163 -3 4 -3 2 -2 -4 4 -15 -120 -117
-154 -128 -13 -4 -21 -9 -18 -13 14 -13 -210 -137 -269 -148 -19 -3 -33 -10
-30 -14 3 -4 -5 -10 -18 -13 -12 -3 -60 -16 -107 -30 -47 -14 -116 -30 -155
-36 -164 -27 -176 -31 -75 -26 56 2 135 15 192 29 531 138 945 552 1084 1084
22 87 45 302 32 302 -3 0 -10 -44 -16 -97z"/>
</g>
</svg>
